# xmcd CD database file
#
# Track frame offsets:
#	150
#	12992
#	33842
#	55275
#	68237
#
# Disc length: 1128 seconds
#
# Revision: 2
# Processed by: cddbd v1.5.2PL0 Copyright (c) Steve Scherf et al.
# Submitted via: CDex 1.94
#
DISCID=3a046605
DTITLE=Mudhoney and Jimmie Dale Gilmore - Mudhoney and Jimmie Dale Gilmore CDEp
DYEAR=1994
DGENRE=Country
TTITLE0=Tonight I Think I'm Gonna Go Downtown - Mudhoney
TTITLE1=Blinding Sun - Jimmie Dale Gilmore
TTITLE2=Buckskin Stallion Blues - Jimmie Dale Gilmore with Mudhoney
TTITLE3=Tonight I Think I'm Gonna Go Downtown - Jimmie Dale Gilmore
TTITLE4=Blinding Sun - Mudhoney
EXTD=YEAR: 1994
EXTT0=
EXTT1=
EXTT2=
EXTT3=
EXTT4=
PLAYORDER=
